{
	"asset":{
		"generator":"Khronos glTF Blender I/O v4.0.44",
		"version":"2.0"
	},
	"scene":0,
	"scenes":[
		{
			"name":"Scene",
			"nodes":[
				0,
				1
			]
		}
	],
	"nodes":[
		{
			"mesh":0,
			"name":"Cube",
			"scale":[
				0.5220531225204468,
				0.2624691426753998,
				0.5220531225204468
			],
			"translation":[
				-3.4446370601654053,
				4.690671920776367,
				-0.006781900301575661
			]
		},
		{
			"mesh":1,
			"name":"Cylinder",
			"scale":[
				5.536322593688965,
				4.18450403213501,
				5.536322593688965
			],
			"translation":[
				0,
				2.1883914470672607,
				0
			]
		}
	],
	"materials":[
		{
			"doubleSided":true,
			"name":"Material.001",
			"pbrMetallicRoughness":{
				"baseColorFactor":[
					0.3620211184024811,
					0,
					0.0004945746622979641,
					1
				],
				"metallicFactor":0.08636362850666046,
				"roughnessFactor":0.36818182468414307
			}
		},
		{
			"doubleSided":true,
			"name":"Material.004",
			"pbrMetallicRoughness":{
				"baseColorFactor":[
					0.5749815702438354,
					0.3038886487483978,
					0.01611233875155449,
					1
				],
				"metallicFactor":0,
				"roughnessFactor":0.5
			}
		},
		{
			"doubleSided":true,
			"name":"Material.005",
			"pbrMetallicRoughness":{
				"baseColorFactor":[
					0.030061133205890656,
					0.0913424864411354,
					0.01569378189742565,
					1
				],
				"metallicFactor":0,
				"roughnessFactor":0.5
			}
		},
		{
			"doubleSided":true,
			"name":"Material",
			"pbrMetallicRoughness":{
				"baseColorFactor":[
					0.919357180595398,
					0.8310582041740417,
					0.7458579540252686,
					1
				],
				"metallicFactor":0,
				"roughnessFactor":0.5
			}
		}
	],
	"meshes":[
		{
			"name":"Cube.001",
			"primitives":[
				{
					"attributes":{
						"POSITION":0,
						"NORMAL":1,
						"TEXCOORD_0":2
					},
					"indices":3,
					"material":0
				},
				{
					"attributes":{
						"POSITION":4,
						"NORMAL":5,
						"TEXCOORD_0":6
					},
					"indices":7,
					"material":1
				},
				{
					"attributes":{
						"POSITION":8,
						"NORMAL":9,
						"TEXCOORD_0":10
					},
					"indices":11,
					"material":2
				}
			]
		},
		{
			"name":"Cylinder.001",
			"primitives":[
				{
					"attributes":{
						"POSITION":12,
						"NORMAL":13,
						"TEXCOORD_0":14
					},
					"indices":15,
					"material":3
				}
			]
		}
	],
	"accessors":[
		{
			"bufferView":0,
			"componentType":5126,
			"count":8934,
			"max":[
				14.803447723388672,
				1.6077213287353516,
				7.460229873657227
			],
			"min":[
				-1.6069477796554565,
				-1.7452114820480347,
				-7.434250354766846
			],
			"type":"VEC3"
		},
		{
			"bufferView":1,
			"componentType":5126,
			"count":8934,
			"type":"VEC3"
		},
		{
			"bufferView":2,
			"componentType":5126,
			"count":8934,
			"type":"VEC2"
		},
		{
			"bufferView":3,
			"componentType":5123,
			"count":14028,
			"type":"SCALAR"
		},
		{
			"bufferView":4,
			"componentType":5126,
			"count":226176,
			"max":[
				14.070085525512695,
				1.4918475151062012,
				7.082193374633789
			],
			"min":[
				-0.8735858201980591,
				-1.3458160161972046,
				-7.056214809417725
			],
			"type":"VEC3"
		},
		{
			"bufferView":5,
			"componentType":5126,
			"count":226176,
			"type":"VEC3"
		},
		{
			"bufferView":6,
			"componentType":5126,
			"count":226176,
			"type":"VEC2"
		},
		{
			"bufferView":7,
			"componentType":5125,
			"count":328320,
			"type":"SCALAR"
		},
		{
			"bufferView":8,
			"componentType":5126,
			"count":3470,
			"max":[
				15.354480743408203,
				1.4581905603408813,
				7.63955020904541
			],
			"min":[
				-2.1579816341400146,
				-1.738513708114624,
				-7.613571643829346
			],
			"type":"VEC3"
		},
		{
			"bufferView":9,
			"componentType":5126,
			"count":3470,
			"type":"VEC3"
		},
		{
			"bufferView":10,
			"componentType":5126,
			"count":3470,
			"type":"VEC2"
		},
		{
			"bufferView":11,
			"componentType":5123,
			"count":5328,
			"type":"SCALAR"
		},
		{
			"bufferView":12,
			"componentType":5126,
			"count":1024,
			"max":[
				1,
				0.5414690375328064,
				1
			],
			"min":[
				-1,
				-0.5,
				-1
			],
			"type":"VEC3"
		},
		{
			"bufferView":13,
			"componentType":5126,
			"count":1024,
			"type":"VEC3"
		},
		{
			"bufferView":14,
			"componentType":5126,
			"count":1024,
			"type":"VEC2"
		},
		{
			"bufferView":15,
			"componentType":5123,
			"count":1908,
			"type":"SCALAR"
		}
	],
	"bufferViews":[
		{
			"buffer":0,
			"byteLength":107208,
			"byteOffset":0,
			"target":34962
		},
		{
			"buffer":0,
			"byteLength":107208,
			"byteOffset":107208,
			"target":34962
		},
		{
			"buffer":0,
			"byteLength":71472,
			"byteOffset":214416,
			"target":34962
		},
		{
			"buffer":0,
			"byteLength":28056,
			"byteOffset":285888,
			"target":34963
		},
		{
			"buffer":0,
			"byteLength":2714112,
			"byteOffset":313944,
			"target":34962
		},
		{
			"buffer":0,
			"byteLength":2714112,
			"byteOffset":3028056,
			"target":34962
		},
		{
			"buffer":0,
			"byteLength":1809408,
			"byteOffset":5742168,
			"target":34962
		},
		{
			"buffer":0,
			"byteLength":1313280,
			"byteOffset":7551576,
			"target":34963
		},
		{
			"buffer":0,
			"byteLength":41640,
			"byteOffset":8864856,
			"target":34962
		},
		{
			"buffer":0,
			"byteLength":41640,
			"byteOffset":8906496,
			"target":34962
		},
		{
			"buffer":0,
			"byteLength":27760,
			"byteOffset":8948136,
			"target":34962
		},
		{
			"buffer":0,
			"byteLength":10656,
			"byteOffset":8975896,
			"target":34963
		},
		{
			"buffer":0,
			"byteLength":12288,
			"byteOffset":8986552,
			"target":34962
		},
		{
			"buffer":0,
			"byteLength":12288,
			"byteOffset":8998840,
			"target":34962
		},
		{
			"buffer":0,
			"byteLength":8192,
			"byteOffset":9011128,
			"target":34962
		},
		{
			"buffer":0,
			"byteLength":3816,
			"byteOffset":9019320,
			"target":34963
		}
	],
	"buffers":[
		{
			"byteLength":9023136,
			"uri":"strawberrycake.bin"
		}
	]
}
